<?xml version="1.0" standalone="no"?><svg xmlns="http://www.w3.org/2000/svg" viewBox="0 0 1440 320"><path fill="#0099ff" fill-opacity="0.15" d="M0,128L24,144C48,160,96,192,144,213.3C192,235,240,245,288,218.7C336,192,384,128,432,112C480,96,528,128,576,160C624,192,672,224,720,240C768,256,816,256,864,224C912,192,960,128,1008,90.7C1056,53,1104,43,1152,80C1200,117,1248,203,1296,240C1344,277,1392,267,1416,261.3L1440,256L1440,320L1416,320C1392,320,1344,320,1296,320C1248,320,1200,320,1152,320C1104,320,1056,320,1008,320C960,320,912,320,864,320C816,320,768,320,720,320C672,320,624,320,576,320C528,320,480,320,432,320C384,320,336,320,288,320C240,320,192,320,144,320C96,320,48,320,24,320L0,320Z"></path></svg>